<svg width="44" height="44" viewBox="0 0 44 44" fill="none" xmlns="http://www.w3.org/2000/svg">
<rect x="1" y="1" width="42" height="42" rx="3" fill="white"/>
<path d="M18 13C15.239 13 13 15.239 13 18V26C13 28.761 15.239 31 18 31H26C28.761 31 31 28.761 31 26V18C31 15.239 28.761 13 26 13H18ZM28 15C28.552 15 29 15.448 29 16C29 16.552 28.552 17 28 17C27.448 17 27 16.552 27 16C27 15.448 27.448 15 28 15ZM22 17C24.761 17 27 19.239 27 22C27 24.761 24.761 27 22 27C19.239 27 17 24.761 17 22C17 19.239 19.239 17 22 17ZM22 19C21.2044 19 20.4413 19.3161 19.8787 19.8787C19.3161 20.4413 19 21.2044 19 22C19 22.7956 19.3161 23.5587 19.8787 24.1213C20.4413 24.6839 21.2044 25 22 25C22.7956 25 23.5587 24.6839 24.1213 24.1213C24.6839 23.5587 25 22.7956 25 22C25 21.2044 24.6839 20.4413 24.1213 19.8787C23.5587 19.3161 22.7956 19 22 19Z" fill="#310A90"/>
<rect x="1" y="1" width="42" height="42" rx="3" stroke="#310A90" stroke-width="2"/>
</svg>
