<svg width="44" height="44" viewBox="0 0 44 44" fill="none" xmlns="http://www.w3.org/2000/svg">
<rect x="1" y="1" width="42" height="42" rx="3" fill="white"/>
<path d="M30.023 25.488C29.393 25.473 28.6 25.436 28.099 25.348C27.557 25.252 26.905 25.066 26.446 24.923C26.086 24.811 25.694 24.91 25.427 25.176L23.21 27.38C21.678 26.573 20.451 25.633 19.412 24.588C18.367 23.549 17.427 22.322 16.62 20.79L18.824 18.572C19.09 18.305 19.189 17.913 19.077 17.553C18.935 17.095 18.748 16.443 18.653 15.901C18.564 15.4 18.528 14.607 18.512 13.977C18.499 13.432 18.055 13 17.51 13H14C13.562 13 13 13.328 13 14C13 18.539 14.84 22.874 17.966 26.034C21.126 29.16 25.461 31 30 31C30.672 31 31 30.438 31 30V26.49C31 25.945 30.568 25.501 30.023 25.488Z" fill="#310A90"/>
<rect x="1" y="1" width="42" height="42" rx="3" stroke="#310A90" stroke-width="2"/>
</svg>
