<svg width="44" height="44" viewBox="0 0 44 44" fill="none" xmlns="http://www.w3.org/2000/svg">
<rect x="1" y="1" width="42" height="42" rx="3" fill="white"/>
<path d="M32 13.999C31.22 14.462 29.655 15.093 28.735 15.275C28.708 15.282 28.686 15.291 28.66 15.298C27.847 14.496 26.733 13.999 25.5 13.999C23.015 13.999 21 16.014 21 18.499C21 18.63 20.989 18.871 21 18.999C17.647 18.999 15.095 17.243 13.265 14.999C13.066 15.499 12.979 16.289 12.979 17.031C12.979 18.432 14.074 19.808 15.779 20.661C15.465 20.742 15.119 20.8 14.759 20.8C14.178 20.8 13.563 20.647 13 20.183C13 20.2 13 20.216 13 20.234C13 22.192 15.078 23.525 16.926 23.896C16.551 24.117 15.795 24.139 15.426 24.139C15.166 24.139 14.246 24.02 14 23.974C14.514 25.579 16.368 26.481 18.135 26.513C16.753 27.597 15.794 27.999 12.964 27.999H12C13.788 29.145 16.065 30 18.347 30C25.777 30 30 24.337 30 18.999C30 18.913 29.998 18.733 29.995 18.552C29.995 18.534 30 18.517 30 18.499C30 18.472 29.992 18.446 29.992 18.419C29.989 18.283 29.986 18.156 29.983 18.09C30.773 17.52 31.458 16.809 32 15.999C31.275 16.321 30.497 16.537 29.68 16.635C30.514 16.135 31.699 14.943 32 13.999Z" fill="#310A90"/>
<rect x="1" y="1" width="42" height="42" rx="3" stroke="#310A90" stroke-width="2"/>
</svg>
